<?xml version="1.0" encoding="utf-8" ?><svg xmlns="http://www.w3.org/2000/svg" xmlns:xlink="http://www.w3.org/1999/xlink" width="1024" height="1024" viewBox="0 0 1024 1024"><path fill="white" d="M0 0L1024 0L1024 1024L0 1024L0 0Z"/><path d="M464.85 468.726C501.686 474.615 523.907 474.496 560.529 468.763C555.74 499.966 562.427 548.364 576.407 576.765C580.998 579.126 590.686 582.765 594.17 585.808C610 599.632 589.703 610.496 607.04 627.819C620.477 641.246 642.914 655.52 645.561 675.015C646.457 681.358 644.761 687.795 640.855 692.873C626.354 711.596 582.446 717.66 559.94 720.706C516.081 725.996 463.778 724.03 420.963 712.91C408.653 709.623 387.434 701.594 381.431 689.49C369.879 666.199 398.778 645.789 413.501 632.55C416.945 629.253 420.497 625.922 423.022 621.856C428.551 612.951 421.496 602.296 424.394 593.532C427.384 584.488 440.603 580.725 448.672 576.566C459.214 552.842 466.175 519.878 466.443 493.834C466.521 486.255 465.573 476.345 464.85 468.726Z"/><path d="M510.209 258.222C540.369 258.306 563.167 269.661 581.956 293.238C574.804 292.112 563.07 290.818 555.94 290.352L563.115 314.836C555.525 313.731 545.647 311.521 537.93 310.057L543.503 333.163C536.129 331.856 528.271 330.767 520.838 329.61C521.578 336.409 522.771 343.894 523.712 350.723C518.485 350.149 513.728 349.666 508.464 349.343C501.912 357.28 492.98 368.91 487.116 377.241C493.691 375.314 500.229 373.261 506.725 371.083C508.815 367.637 511.06 362.892 512.921 359.22C518.252 362.415 523.511 365.728 528.696 369.156C530.854 362.434 532.882 355.403 534.937 348.627C540.925 352.998 546.874 357.874 552.685 362.515C555.049 356.219 557.374 346.821 559.534 339.958L578.056 355.694L583.662 330.394C589.388 336.189 594.413 341.838 599.826 347.944C599.014 367.474 595.401 378.026 585.318 394.587C577.808 405.403 572.464 409.961 562.576 418.138C570.137 419.973 576.816 421.458 583.765 424.499C603.537 433.288 597.599 445.469 580.23 451.588C544.803 464.066 505.993 464.125 469.275 458.142C460.077 456.138 444.847 453.526 437.018 448.031C410.985 429.759 451.34 420.786 462.542 418.698C459.734 416.358 456.74 413.867 454.055 411.412C436.787 395.526 426.46 373.485 425.305 350.05C423.241 300.312 460.588 260.331 510.209 258.222Z"/><path d="M385.174 708.89C411.271 728.184 455.776 731.392 487.443 734.227C523.421 737.447 610.7 733.237 638.954 708.492C640.806 709.992 642.501 711.676 644.015 713.516C652.47 723.805 650.617 733.694 640.491 741.612C611.488 763.459 538.023 766.843 501.25 765.899C469.997 765.097 405.162 761.241 379.995 738.278C376.951 735.5 374.519 729.306 375.014 724.996C375.858 717.66 379.908 713.375 385.174 708.89Z"/></svg>